<svg fill="none" height="24" viewBox="0 0 24 24" width="24" xmlns="http://www.w3.org/2000/svg"><path d="m21 5.24902h-3.559c-.539 0-1.016-.344-1.186-.854l-.316-.94898c-.239-.716-.906-1.19604-1.66-1.19604h-4.55903c-.754 0-1.42097.48002-1.65997 1.19702l-.31598.948c-.17.511-.64704.85498-1.18604.85498h-3.55798c-.414 0-.75.336-.75.75s.336.75.75.75h1.29797l.76703 11.5c.131 1.963 1.77401 3.5 3.74201 3.5h6.38699c1.967 0 3.611-1.538 3.742-3.5l.767-11.5h1.297c.414 0 .75-.336.75-.75s-.336-.75098-.75-.75098zm-11.51703-1.32898c.034-.102.129-.17102.237-.17102h4.55903c.108 0 .203.06905.237.17005l.316.94897c.044.132.099.25901.161.38001h-5.988c.062-.122.11702-.24798.16102-.38098zm7.95503 14.22896c-.078 1.178-1.064 2.1-2.245 2.1h-6.38697c-1.18 0-2.16706-.922-2.24506-2.1l-.75994-11.39998h.75695c.107 0 .21202-.01302.31702-.02502.042.007.08002.02502.12402.02502h9.99998c.044 0 .082-.01802.124-.02502.105.012.209.02502.317.02502h.757zm-2.688-7.15v5c0 .414-.336.75-.75.75s-.75-.336-.75-.75v-5c0-.414.336-.75.75-.75s.75.336.75.75zm-4 0v5c0 .414-.336.75-.75.75s-.75-.336-.75-.75v-5c0-.414.336-.75.75-.75s.75.336.75.75z" fill="#41416e"/></svg>